{"title":"Dangerous Minds *1995* [DVDRip.XviD-miguel] [Lektor PL]","uid":6348292,"size":737870452,"categoryP":"video","categoryS":"movies","magnet":"?xt=urn:btih:890e2cad5618aeb3e753300d14b7ed43c70133ef&amp;dn=Dangerous+Minds+%2A1995%2A+%5BDVDRip.XviD-miguel%5D+%5BLektor+PL%5D&amp;tr=udp%3A%2F%2Ftracker.openbittorrent.com%3A80&amp;tr=udp%3A%2F%2Fopen.demonii.com%3A1337&amp;tr=udp%3A%2F%2Ftracker.coppersurfer.tk%3A6969&amp;tr=udp%3A%2F%2Fexodus.desync.com%3A6969","seeders":2,"leechers":0,"uploader":"miguel1983","files":-1,"time":1303913506,"description":" &lt;a href=&quot;http://img6.imageshack.us/img6/3123/dangerousminds1995.jpg&quot; rel=&quot;nofollow&quot; target=&quot;_NEW&quot;&gt;http://img6.imageshack.us/img6/3123/dangerousminds1995.jpg&lt;/a&gt;\n\nCountry.......: USA\nGenre.........: Thriller, Crime, Drama\nDate release..: 11.08.1995 [World]\nDirector......: John N. Smith\nWriters.......: LouAnne Johnson, Ronald Bass\nDuration......: 94 min.\nMore..........: http://www.imdb.com/title/tt0112792\nTrailer.......:\n\nPilot :\nAn ex-marine teacher struggles to connect with her students in an inner city schools. \n\nCats :\nMichelle Pfeiffer   \t ...  \tLouanne Johnson\nGeorge Dzundza \t... \tHal Griffith\nCourtney B. Vance \t... \tGeorge Grandey\nRobin Bartlett \t... \tCarla Nichols\nBeatrice Winde \t... \tMary Benton\nJohn Neville \t... \tWaiter\nLorraine Toussaint \t... \tIrene Roberts\nRenoly Santiago \t... \tRaul Sanchero\nWade Dominguez \t... \tEmilio Ramirez\nBruklin Harris \t... \tCallie Roberts\nMarcello Thedford \t... \tCornelius Bates\nRoberto Alvarez \t... \tGusmaro Rivera\nRichard Grant \t... \tDurrell Benton\nMarisela Gonzales \t... \tAngela\nToni Nichelle Buzhardt \t... \tNikki\n\nData Technical :\n!!! SAMPLE !!!\nAudio.....: Lector Polish\nSubtitles.: None\nFormat                           : AVI\nFormat/Info                      : Audio Video Interleave\nFile size                        : 701 MiB\nDuration                         : 1h 34mn\nOverall bit rate                 : 1 038 Kbps\nWriting application              : VirtualDubMod 1.5.10.2 (build 2540/release)\nWriting library                  : VirtualDubMod build 2540/release\nVideo\nID                               : 0\nFormat                           : MPEG-4 Visual\nFormat settings, BVOP            : Yes\nFormat settings, QPel            : No\nFormat settings, GMC             : No warppoints\nFormat settings, Matrix          : Default (H.263)\nCodec ID                         : XVID\nCodec ID/Hint                    : XviD\nDuration                         : 1h 34mn\nBit rate                         : 900 Kbps\nWidth                            : 576 pixels\nHeight                           : 304 pixels\nDisplay aspect ratio             : 1.895\nFrame rate                       : 25.000 fps\nColor space                      : YUV\nChroma subsampling               : 4:2:0\nBit depth                        : 8 bits\nScan type                        : Progressive\nBits/(Pixel*Frame)               : 0.206\nStream size                      : 608 MiB (87%)\nAudio\nID                               : 1\nFormat                           : MPEG Audio\nFormat version                   : Version 1\nFormat profile                   : Layer 3\nMode                             : Joint stereo\nMode extension                   : MS Stereo\nCodec ID                         : 55\nCodec ID/Hint                    : MP3\nDuration                         : 1h 34mn\nBit rate mode                    : Constant\nBit rate                         : 128 Kbps\nChannel(s)                       : 2 channels\nSampling rate                    : 48.0 KHz\nStream size                      : 86.5 MiB (12%)\nAlignment                        : Split accross interleaves\nInterleave, duration             : 40 ms (1.00 video frame)\nInterleave, preload duration     : 500 ms\n\nScreen : &lt;a href=&quot;\nhttp://img30.imageshack.us/img30/2144/dangerousminds1995s5.jpg&quot; rel=&quot;nofollow&quot; target=&quot;_NEW&quot;&gt;\nhttp://img30.imageshack.us/img30/2144/dangerousminds1995s5.jpg&lt;/a&gt; &lt;a href=&quot;\nhttp://img194.imageshack.us/img194/8481/dangerousminds1995s1.jpg&quot; rel=&quot;nofollow&quot; target=&quot;_NEW&quot;&gt;\nhttp://img194.imageshack.us/img194/8481/dangerousminds1995s1.jpg&lt;/a&gt; &lt;a href=&quot;\nhttp://img269.imageshack.us/img269/9374/dangerousminds1995s2.jpg&quot; rel=&quot;nofollow&quot; target=&quot;_NEW&quot;&gt;\nhttp://img269.imageshack.us/img269/9374/dangerousminds1995s2.jpg&lt;/a&gt; &lt;a href=&quot;\nhttp://img38.imageshack.us/img38/8940/dangerousminds1995s3.jpg&quot; rel=&quot;nofollow&quot; target=&quot;_NEW&quot;&gt;\nhttp://img38.imageshack.us/img38/8940/dangerousminds1995s3.jpg&lt;/a&gt; &lt;a href=&quot;\nhttp://img864.imageshack.us/img864/5639/dangerousminds1995s4t.jpg&quot; rel=&quot;nofollow&quot; target=&quot;_NEW&quot;&gt;\nhttp://img864.imageshack.us/img864/5639/dangerousminds1995s4t.jpg&lt;/a&gt;","torrent":{"xt":"urn:btih:890e2cad5618aeb3e753300d14b7ed43c70133ef","amp;dn":"Dangerous+Minds+%2A1995%2A+%5BDVDRip.XviD-miguel%5D+%5BLektor+PL%5D","amp;tr":["udp%3A%2F%2Ftracker.openbittorrent.com%3A80","udp%3A%2F%2Fopen.demonii.com%3A1337","udp%3A%2F%2Ftracker.coppersurfer.tk%3A6969","udp%3A%2F%2Fexodus.desync.com%3A6969"],"infoHash":"890e2cad5618aeb3e753300d14b7ed43c70133ef","infoHashBuffer":{"type":"Buffer","data":[137,14,44,173,86,24,174,179,231,83,48,13,20,183,237,67,199,1,51,239]},"announce":[],"urlList":[]}}